<svg version="1.1" class="clearos-svg clearfoundation app-vendor-clearfoundation app-free app-category-system app-sub-category-my-account" viewBox="0 0 400 400" preserveAspectRatio="xMinYMin" xmlns="http://www.w3.org/2000/svg" xmlns:xlink= "http://www.w3.org/1999/xlink">
<path id="path28" fill="#AA0707" d="M441.666,184.647"/>
<path id="path30" fill="#AA0707" d="M473.245,247.805"/>
<path id="path32" fill="#AA0707" d="M441.666,184.647"/>
<path id="path34" fill="#AA0707" d="M473.245,247.805"/>
<g>
	<path fill="#686868" d="M163.203,3.166V5.07c11.137,1.1,16.936,4.55,20.596,10.59c43.446,5.673,30.405,60.623,24.124,78.37
		c2.332,1.327,6.117,5.541,5.174,13.025c-1.738,13.985-7.844,17.583-11.695,17.817c-1.518,13.033-10.294,28.47-15.221,30.913
		c0,9.287-0.382,16.396,0.609,26.597c11.8,29.774,90.997,21.431,94.682,78.815H160.463v135.637l110.453-68.271l111.555,68.271V3.166
		H163.203L163.203,3.166z"/>
	<path fill="#686868" d="M177.743,182.186c-0.897-9.989-0.539-16.951-0.539-26.097c4.533-2.38,12.627-17.567,14.017-30.366
		c3.574-0.289,9.201-3.754,10.801-17.489c0.867-7.367-2.639-11.503-4.745-12.814c5.833-17.435,17.834-71.362-22.267-76.926
		c-4.121-7.258-14.672-10.918-28.444-10.918C91.609,8.614,85.013,49.102,97.063,95.482c-2.161,1.311-5.688,5.432-4.813,12.807
		c1.631,13.712,7.242,17.177,10.824,17.465c1.355,12.807,9.81,27.97,14.352,30.366c0,9.146,0.367,16.1-0.546,26.105
		C106,211.452,17.53,226.17,17.53,254.357h255.386C272.883,221.378,188.629,211.452,177.743,182.186z"/>
</g>
</svg>
